# xmcd
#
# Track frame offsets:
#	183
#	15278
#	26235
#	38195
#	51445
#	64460
#	74290
#	85435
#	100500
#	112833
#	125155
#	138505
#	150443
#	162038
#	172745
#	182848
#
# Disc length: 2660 seconds
#
# Revision: 2
# Processed by: cddbd v1.5.2PL0 Copyright (c) Steve Scherf et al.
# Submitted via: EasyCDDAExtractor 15.2.5.1
#
DISCID=d00a6210
DTITLE=Various Artist - Country Collection - Disc 1 (Four Star Country)
DYEAR=1900
DGENRE=Country
TTITLE0=Kenny Rogers - For The Good Times 
TTITLE1=Johnny Cash - I Love You Because
TTITLE2=Don Williams - Follow Me Back To Louisville
TTITLE3=Willie Nelson - You'll Always Have Someone
TTITLE4=Kenny Rogers - Ruby, Don't Take Your Love To Town
TTITLE5=Johnny Cash - Ballad Of A Teenage Queen
TTITLE6=Don Williams - Storybook Children
TTITLE7=Willie Nelson - And So Will You My Love
TTITLE8=Kenny Rogers - Reuben James
TTITLE9=Johnny Cash - Next In Line
TTITLE10=Don Williams - Where Do We Go From Here
TTITLE11=Willie Nelson - I Hope So
TTITLE12=Kenny Rogers - Poem For My Lady
TTITLE13=Johnny Cash - Cold Cold Heart
TTITLE14=Don Williams - Take My Hand For A While
TTITLE15=Willie Nelson - I Let My Mind Wonder
EXTD=
EXTT0=
EXTT1=
EXTT2=
EXTT3=
EXTT4=
EXTT5=
EXTT6=
EXTT7=
EXTT8=
EXTT9=
EXTT10=
EXTT11=
EXTT12=
EXTT13=
EXTT14=
EXTT15=
PLAYORDER=
